P2
# Created by IrfanView
128 128
255
0 0 0 0 0 0 0 0 0 0 0 0 0 0 0 0 0 
0 0 0 0 0 0 0 0 0 0 0 0 0 0 0 0 
0 0 0 0 0 0 0 0 0 0 0 0 0 0 0 0 
0 0 0 0 0 0 0 0 0 0 0 0 0 0 0 0 
0 0 0 0 0 0 0 0 0 0 0 0 0 0 0 0 
0 0 0 0 0 0 0 0 0 0 0 0 0 0 0 0 
0 0 0 0 0 0 0 0 0 0 0 0 0 0 0 0 
0 0 0 0 0 0 0 0 0 0 0 0 0 0 0 0 0 0 0 0 0 0 0 0 0 0 0 0 0 0 0 0 
0 0 0 0 0 0 0 0 0 0 0 0 0 0 0 0 
0 0 0 0 0 0 0 0 0 0 0 0 0 0 0 0 
0 0 0 0 0 0 0 0 0 0 0 0 0 0 0 0 
0 0 0 0 0 0 0 0 0 0 0 0 0 0 0 0 
0 0 0 0 0 0 0 0 0 0 0 0 0 0 0 0 
0 0 0 0 0 0 0 0 0 0 0 0 0 0 0 0 
0 0 0 0 0 0 0 0 0 0 0 0 0 0 0 0 0 0 0 0 0 0 0 0 0 0 0 0 0 0 0 0 
0 0 0 0 0 0 0 0 0 0 0 0 0 0 0 0 
0 0 0 0 0 0 0 0 0 0 0 0 0 0 0 0 
0 0 0 0 0 0 0 0 0 0 0 0 0 0 0 0 
0 0 0 0 0 0 0 0 0 0 0 0 0 0 0 0 
0 0 0 0 0 0 0 0 0 0 0 0 0 0 0 0 
0 0 0 0 0 0 0 0 0 0 0 0 0 0 0 0 
0 0 0 0 0 0 0 0 0 0 0 0 0 0 0 0 0 0 0 0 0 0 0 0 0 0 0 0 0 0 0 0 
0 0 0 0 0 0 0 0 0 0 0 0 0 0 0 0 
0 0 0 0 0 0 0 0 0 0 0 0 0 0 0 0 
0 0 0 0 0 0 0 0 0 0 0 0 0 0 0 0 
0 0 0 0 0 0 0 0 0 0 0 0 0 0 0 0 
0 0 0 0 0 0 0 0 0 0 0 0 0 0 0 0 
0 0 0 0 0 0 0 0 0 0 0 0 0 0 0 0 
0 0 0 0 0 0 0 0 0 0 0 0 0 0 0 0 0 0 0 0 0 0 0 0 0 0 0 0 0 0 0 0 
0 0 0 0 0 0 0 0 0 0 0 0 0 0 0 0 
0 0 0 0 0 0 0 0 0 0 0 0 0 0 0 0 
0 0 0 0 0 0 0 0 0 0 0 0 0 0 0 0 
0 0 0 0 0 0 0 0 0 0 0 0 0 0 0 0 
0 0 0 0 0 0 0 0 0 0 0 0 0 0 0 0 
0 0 0 0 0 0 0 0 0 0 0 0 0 0 0 0 
0 0 0 0 0 0 0 0 0 0 0 0 0 0 0 0 0 0 0 0 0 0 0 0 0 0 0 0 0 0 0 0 
0 0 0 0 0 0 0 0 0 0 0 0 0 0 0 0 
0 0 0 0 0 0 0 0 0 0 0 0 0 0 0 0 
0 0 0 0 0 0 0 0 0 0 0 0 0 0 0 0 
0 0 0 0 0 0 0 0 0 0 0 0 0 0 0 0 
0 0 0 0 0 0 0 0 0 0 0 0 0 0 0 0 
0 0 0 0 0 0 0 0 0 0 0 0 0 0 0 0 
0 0 0 0 0 0 0 0 0 0 0 0 0 0 0 0 0 0 0 0 0 0 0 0 0 0 0 0 0 0 0 0 
0 0 0 0 0 0 0 0 0 0 0 0 0 0 0 0 
0 0 0 0 0 0 0 0 0 0 0 0 0 0 0 0 
0 0 0 0 0 0 0 0 0 0 0 0 0 0 0 0 
0 0 0 0 0 0 0 0 0 0 0 0 0 0 0 0 
0 0 0 0 0 0 0 0 0 0 0 0 0 0 0 0 
0 0 0 0 0 0 0 0 0 0 0 0 0 0 0 0 
0 0 0 0 0 0 0 0 0 0 0 0 0 0 0 0 0 0 0 0 0 0 0 0 0 0 0 0 0 0 0 0 
0 0 0 0 0 0 0 0 0 0 0 0 0 0 0 0 
0 0 0 0 0 0 0 0 0 0 0 0 0 0 0 0 
0 0 0 0 0 0 0 0 0 0 0 0 0 0 0 0 
0 0 0 0 0 0 0 0 0 0 0 0 0 0 0 0 
0 0 0 0 0 0 0 0 0 0 0 0 0 0 0 0 
0 0 0 0 0 0 0 0 0 0 0 0 0 0 0 0 
0 0 0 0 0 0 0 0 0 0 0 0 0 0 0 0 0 0 0 0 0 0 0 0 0 0 0 0 0 0 0 0 
0 0 0 0 0 0 0 0 0 0 0 0 0 0 0 0 
0 0 0 0 0 0 0 0 0 0 0 0 0 0 0 0 
0 0 0 0 0 0 0 0 0 0 0 0 0 0 0 0 
0 0 0 0 0 0 0 0 0 0 0 0 0 0 0 0 
0 0 0 0 0 0 0 0 0 0 0 0 0 0 0 0 
0 0 0 0 0 0 0 0 0 0 0 0 0 0 0 0 
0 0 0 0 0 0 0 0 0 0 0 0 0 0 0 0 0 0 0 0 0 0 0 0 0 0 0 0 0 0 0 0 
0 0 0 0 0 0 0 0 0 0 0 0 0 0 0 0 
0 0 0 0 0 0 0 0 0 0 0 0 0 0 0 0 
0 0 0 0 0 0 0 0 0 0 0 0 0 0 0 0 
0 0 0 0 0 0 0 0 0 0 0 0 0 0 0 0 
0 0 0 0 0 0 0 0 0 0 0 0 0 0 0 0 
0 0 0 0 0 0 0 0 0 0 0 0 0 0 0 0 
0 0 0 0 0 0 0 0 0 0 0 0 0 0 0 0 0 0 0 0 0 0 0 0 0 0 0 0 0 0 0 0 
0 0 0 0 0 0 0 0 0 0 0 0 0 0 0 0 
0 0 0 0 0 0 0 0 0 0 0 0 0 0 0 0 
0 0 0 0 0 0 0 0 0 0 0 0 0 0 0 0 
0 0 0 0 0 0 0 0 0 0 0 0 0 0 0 0 
0 0 0 0 0 0 0 0 0 0 0 0 0 0 0 0 
0 0 0 0 0 0 0 0 0 0 0 0 0 0 0 0 
0 0 0 0 0 0 0 0 0 0 0 0 0 0 0 0 0 0 0 0 0 0 0 0 0 0 0 0 0 0 0 0 
0 0 0 0 0 0 0 0 0 0 0 0 0 0 0 0 
0 0 0 0 0 0 0 0 0 0 0 0 0 0 0 0 
0 0 0 0 0 0 0 0 0 0 0 0 0 0 0 0 
0 0 0 0 0 0 0 0 0 0 0 0 0 0 0 0 
0 0 0 0 0 0 0 0 0 0 0 0 0 0 0 0 
0 0 0 0 0 0 0 0 0 0 0 0 0 0 0 0 
0 0 0 0 0 0 0 0 0 0 0 0 0 0 0 0 0 0 0 0 0 0 0 0 0 0 0 0 0 0 0 0 
0 0 0 0 0 0 0 0 0 0 0 0 0 0 0 0 
0 0 0 0 0 0 0 0 0 0 0 0 0 0 0 0 
0 0 0 0 0 0 0 0 0 0 0 0 0 0 0 0 
0 0 0 0 0 0 0 0 0 0 0 0 0 0 0 0 
0 0 0 0 0 0 0 0 0 0 0 0 0 0 0 0 
0 0 0 0 0 0 0 0 0 0 0 0 0 0 0 0 
0 0 0 0 0 0 0 0 0 0 0 0 0 0 0 0 0 0 0 0 0 0 0 0 0 0 0 0 0 0 0 0 
0 0 0 0 0 0 0 0 0 0 0 0 0 0 0 0 
0 0 0 0 0 0 0 0 0 0 0 0 0 0 0 0 
0 0 0 0 0 0 0 0 0 0 0 0 0 0 0 0 
0 0 0 0 0 0 0 0 0 0 0 0 0 0 0 0 
0 0 0 0 0 0 0 0 0 0 0 0 0 0 0 0 
0 0 0 0 0 0 0 0 0 0 0 0 0 0 0 0 
0 0 0 0 0 0 0 0 0 0 0 0 0 0 0 0 0 0 0 0 0 0 0 0 0 0 0 0 0 0 0 0 
0 0 0 0 0 0 0 0 0 0 0 0 0 0 0 0 
0 0 0 0 0 0 0 0 0 0 0 0 0 0 0 0 
0 0 0 0 0 0 0 0 0 0 1 1 1 1 1 1 
1 0 0 0 0 0 0 0 0 0 0 0 0 0 0 0 
0 0 0 0 0 0 0 0 0 0 0 0 0 0 0 0 
0 0 0 0 0 0 0 0 0 0 0 0 0 0 0 0 
0 0 0 0 0 0 0 0 0 0 0 0 0 0 0 0 0 0 0 0 0 0 0 0 0 0 0 0 0 0 0 0 
0 0 0 0 0 0 0 0 0 0 0 0 0 0 0 0 
0 0 0 0 0 0 0 0 0 0 0 0 0 0 0 0 
0 0 0 0 0 0 0 0 1 1 1 1 1 1 1 1 
1 1 1 0 0 0 0 0 0 0 0 0 0 0 0 0 
0 0 0 0 0 0 0 0 0 0 0 0 0 0 0 0 
0 0 0 0 0 0 0 0 0 0 0 0 0 0 0 0 
0 0 0 0 0 0 0 0 0 0 0 0 0 0 0 0 0 0 0 0 0 0 0 0 0 0 0 0 0 0 0 0 
0 0 0 0 0 0 0 0 0 0 0 0 0 0 0 0 
0 0 0 0 0 0 0 0 0 0 0 0 0 0 0 0 
0 0 0 0 0 0 1 1 1 1 1 1 1 1 1 1 
1 1 1 1 1 0 0 0 0 0 0 0 0 0 0 0 
0 0 0 0 0 0 0 0 0 0 0 0 0 0 0 0 
0 0 0 0 0 0 0 0 0 0 0 0 0 0 0 0 
0 0 0 0 0 0 0 0 0 0 0 0 0 0 0 0 0 0 0 0 0 0 0 0 0 0 0 0 0 0 0 0 
0 0 0 0 0 0 0 0 0 0 0 0 0 0 0 0 
0 0 0 0 0 0 0 0 0 0 0 0 0 0 0 0 
0 0 0 0 0 1 1 1 1 1 1 1 1 1 1 1 
1 1 1 1 1 1 0 0 0 0 0 0 0 0 0 0 
0 0 0 0 0 0 0 0 0 0 0 0 0 0 0 0 
0 0 0 0 0 0 0 0 0 0 0 0 0 0 0 0 
0 0 0 0 0 0 0 0 0 0 0 0 0 0 0 0 0 0 0 0 0 0 0 0 0 0 0 0 1 1 1 1 
1 1 1 1 1 1 1 1 0 0 0 0 0 0 0 0 
0 0 0 0 0 0 0 0 0 0 0 0 0 0 0 0 
0 0 0 0 1 1 1 1 1 1 1 1 1 1 1 1 
1 1 1 1 1 1 1 0 0 0 0 0 0 0 0 0 
0 0 0 0 0 0 0 0 0 0 0 0 0 0 0 0 
0 0 0 1 1 1 1 1 1 1 1 1 1 1 1 0 
0 0 0 0 0 0 0 0 0 0 0 0 0 0 0 0 0 0 0 0 0 0 0 0 0 1 1 1 1 1 1 1 
1 1 1 1 1 1 1 1 1 1 1 0 0 0 0 0 
0 0 0 0 0 0 0 0 0 0 0 0 0 0 0 0 
0 0 0 1 1 1 1 1 1 1 2 2 2 2 2 2 
2 1 1 1 1 1 1 1 0 0 0 0 0 0 0 0 
0 0 0 0 0 0 0 0 0 0 0 0 0 0 0 0 
1 1 1 1 1 1 1 1 1 1 1 1 1 1 1 1 
1 1 0 0 0 0 0 0 0 0 0 0 0 0 0 0 0 0 0 0 0 0 0 1 1 1 1 1 1 1 1 1 
1 1 1 1 1 1 1 1 1 1 1 1 1 0 0 0 
0 0 0 0 0 0 0 0 0 0 0 0 0 0 0 0 
0 0 0 1 1 1 1 1 2 2 2 2 2 2 2 2 
2 2 2 1 1 1 1 1 0 0 0 0 0 0 0 0 
0 0 0 0 0 0 0 0 0 0 0 0 0 0 1 1 
1 1 1 1 1 1 1 1 1 1 1 1 1 1 1 1 
1 1 1 1 0 0 0 0 0 0 0 0 0 0 0 0 0 0 0 0 0 1 1 1 1 1 1 1 1 1 1 1 
1 1 1 1 1 1 1 1 1 1 1 1 1 1 0 0 
0 0 0 0 0 0 0 0 0 0 0 0 0 0 0 0 
0 0 1 1 1 1 2 2 2 2 2 2 2 2 2 2 
2 2 2 2 2 1 1 1 1 0 0 0 0 0 0 0 
0 0 0 0 0 0 0 0 0 0 0 0 0 1 1 1 
1 1 1 1 1 1 1 1 1 1 1 1 1 1 1 1 
1 1 1 1 1 1 0 0 0 0 0 0 0 0 0 0 0 0 0 1 1 1 1 1 1 1 1 1 1 1 1 1 
1 1 1 1 1 1 1 1 1 1 1 1 1 1 1 1 
0 0 0 0 0 0 0 0 0 0 0 0 0 0 0 0 
0 0 1 1 1 2 2 2 2 2 3 3 3 3 3 3 
3 2 2 2 2 2 1 1 1 0 0 0 0 0 0 0 
0 0 0 0 0 0 0 0 0 0 0 1 1 1 1 1 
1 1 1 1 1 1 1 1 1 1 1 1 1 1 1 1 
1 1 1 1 1 1 1 1 0 0 0 0 0 0 0 0 0 0 1 1 1 1 1 1 1 1 1 1 1 1 1 2 
2 2 2 2 2 2 2 2 2 1 1 1 1 1 1 1 
1 0 0 0 0 0 0 0 0 0 0 0 0 0 0 0 
0 1 1 1 2 2 2 2 3 3 3 3 3 3 3 3 
3 3 3 2 2 2 2 1 1 1 0 0 0 0 0 0 
0 0 0 0 0 0 0 0 0 0 1 1 1 1 1 1 
1 1 2 2 2 2 2 2 2 2 2 2 1 1 1 1 
1 1 1 1 1 1 1 1 1 0 0 0 0 0 0 0 1 1 1 1 1 1 1 1 1 1 1 1 2 2 2 2 
2 2 2 2 2 2 2 2 2 2 2 2 1 1 1 1 
1 1 0 0 0 0 0 0 0 0 0 0 0 0 0 0 
0 1 1 1 2 2 2 3 3 3 4 4 4 4 4 4 
4 3 3 3 2 2 2 1 1 1 0 0 0 0 0 0 
0 0 0 0 0 0 0 0 0 1 1 1 1 1 1 2 
2 2 2 2 2 2 2 2 2 2 2 2 2 2 2 1 
1 1 1 1 1 1 1 1 1 1 1 0 0 0 0 1 1 1 1 1 1 1 1 1 1 1 2 2 2 2 2 2 
2 2 2 2 2 2 2 2 2 2 2 2 2 2 1 1 
1 1 1 0 0 0 0 0 0 0 0 0 0 0 0 0 
1 1 1 2 2 2 3 3 4 4 4 4 4 5 4 4 
4 4 4 3 3 2 2 2 1 1 1 0 0 0 0 0 
0 0 0 0 0 0 0 0 1 1 1 1 1 2 2 2 
2 2 2 2 2 2 2 2 2 2 2 2 2 2 2 2 
2 1 1 1 1 1 1 1 1 1 1 1 0 0 1 1 1 1 1 1 1 1 1 1 2 2 2 2 2 2 2 2 
2 3 3 3 3 3 3 3 3 2 2 2 2 2 2 1 
1 1 1 1 0 0 0 0 0 0 0 0 0 0 0 0 
1 1 1 2 2 3 3 4 4 5 5 5 5 5 5 5 
5 5 4 4 3 3 2 2 1 1 1 0 0 0 0 0 
0 0 0 0 0 0 0 1 1 1 1 1 2 2 2 2 
2 2 3 3 3 3 3 3 3 3 2 2 2 2 2 2 
2 2 2 1 1 1 1 1 1 1 1 1 1 0 1 1 1 1 1 1 1 1 2 2 2 2 2 2 2 2 3 3 
3 3 3 3 3 3 3 3 3 3 3 3 2 2 2 2 
2 1 1 1 0 0 0 0 0 0 0 0 0 0 0 0 
1 1 2 2 3 3 4 4 5 5 6 6 6 6 6 6 
6 5 5 4 4 3 3 2 2 1 1 0 0 0 0 0 
0 0 0 0 0 0 0 1 1 1 2 2 2 2 2 3 
3 3 3 3 3 3 3 3 3 3 3 3 3 2 2 2 
2 2 2 2 2 1 1 1 1 1 1 1 1 1 1 1 1 1 1 1 1 2 2 2 2 2 2 3 3 3 3 3 
3 3 3 3 4 4 4 4 3 3 3 3 3 3 2 2 
2 2 1 1 1 0 0 0 0 0 0 0 0 0 0 0 
1 1 2 2 3 4 4 5 5 6 6 7 7 7 7 7 
6 6 5 5 4 4 3 2 2 1 1 0 0 0 0 0 
0 0 0 0 0 0 1 1 1 2 2 2 2 3 3 3 
3 3 3 4 4 4 4 3 3 3 3 3 3 3 3 3 
2 2 2 2 2 2 1 1 1 1 1 1 1 1 1 1 1 1 1 2 2 2 2 2 2 3 3 3 3 3 3 4 
4 4 4 4 4 4 4 4 4 4 4 4 3 3 3 3 
2 2 2 1 1 1 0 0 0 0 0 0 0 0 0 0 
1 1 2 3 3 4 5 6 6 7 7 8 8 8 8 8 
7 7 6 6 5 4 3 3 2 1 1 0 0 0 0 0 
0 0 0 0 0 1 1 1 2 2 2 3 3 3 3 4 
4 4 4 4 4 4 4 4 4 4 4 4 3 3 3 3 
3 3 2 2 2 2 2 2 1 1 1 1 1 1 1 1 1 1 2 2 2 2 2 2 3 3 3 3 3 4 4 4 
4 4 4 5 5 5 5 5 5 5 4 4 4 4 3 3 
3 2 2 2 1 1 0 0 0 0 0 0 0 0 0 1 
1 2 2 3 4 5 6 6 7 8 8 9 9 9 9 9 
8 8 7 6 6 5 4 3 2 2 1 1 0 0 0 0 
0 0 0 0 0 1 1 2 2 2 3 3 3 4 4 4 
4 5 5 5 5 5 5 5 4 4 4 4 4 4 3 3 
3 3 3 2 2 2 2 2 2 1 1 1 1 1 1 1 1 2 2 2 2 2 3 3 3 3 3 4 4 4 4 4 
5 5 5 5 5 5 5 5 5 5 5 5 5 4 4 4 
3 3 2 2 1 1 1 0 0 0 0 0 0 0 0 1 
1 2 3 3 4 5 6 7 8 9 9 10 10 10 10 10 
9 9 8 7 6 5 4 3 3 2 1 1 0 0 0 0 
0 0 0 0 1 1 1 2 2 3 3 4 4 4 5 5 
5 5 5 5 5 5 5 5 5 5 5 4 4 4 4 4 
3 3 3 3 3 2 2 2 2 2 1 1 1 1 1 1 2 2 2 2 2 3 3 3 3 4 4 4 4 5 5 5 
5 5 6 6 6 6 6 6 6 6 6 6 5 5 5 4 
4 3 3 2 2 1 1 0 0 0 0 0 0 0 0 1 
1 2 3 4 5 6 7 8 9 10 10 11 11 11 11 11 
10 10 9 8 7 6 5 4 3 2 1 1 0 0 0 0 
0 0 0 0 1 1 2 2 3 3 4 4 5 5 5 6 
6 6 6 6 6 6 6 6 6 5 5 5 5 5 4 4 
4 4 3 3 3 3 2 2 2 2 2 1 1 1 1 2 2 2 2 2 3 3 3 3 4 4 4 4 5 5 5 6 
6 6 6 7 7 7 7 7 7 7 7 7 6 6 6 5 
5 4 4 3 2 2 1 1 0 0 0 0 0 0 0 1 
1 2 3 4 5 7 8 9 10 11 12 12 13 13 13 12 
12 11 10 9 8 7 5 4 3 2 1 1 0 0 0 0 
0 0 0 1 1 2 2 3 4 4 5 5 6 6 6 7 
7 7 7 7 7 7 7 7 6 6 6 6 5 5 5 4 
4 4 4 3 3 3 3 2 2 2 2 2 1 1 2 2 2 2 2 3 3 3 3 4 4 4 5 5 5 6 6 6 
7 7 7 7 8 8 8 8 8 8 8 8 7 7 7 6 
5 5 4 4 3 2 2 1 0 0 0 0 0 0 0 1 
1 2 3 5 6 7 9 10 11 12 13 14 14 14 14 14 
13 12 11 10 9 7 6 5 3 2 1 1 0 0 0 0 
0 0 0 1 2 2 3 4 4 5 5 6 7 7 7 8 
8 8 8 8 8 8 8 7 7 7 7 6 6 6 5 5 
5 4 4 4 3 3 3 3 2 2 2 2 2 1 2 2 2 2 3 3 3 3 4 4 4 5 5 5 6 6 7 7 
7 8 8 8 8 9 9 9 9 9 9 9 8 8 8 7 
6 6 5 4 4 3 2 1 1 0 0 0 0 0 0 1 
1 2 4 5 6 8 9 11 12 14 15 15 16 16 16 15 
15 14 12 11 9 8 6 5 4 2 1 1 0 0 0 0 
0 0 1 1 2 3 4 4 5 6 6 7 8 8 8 9 
9 9 9 9 9 9 8 8 8 8 7 7 7 6 6 5 
5 5 4 4 4 3 3 3 3 2 2 2 2 1 2 2 2 3 3 3 3 4 4 4 5 5 6 6 6 7 7 8 
8 8 9 9 9 10 10 10 10 10 10 10 9 9 9 8 
7 7 6 5 4 3 3 2 1 0 0 0 0 0 0 1 
1 2 4 5 7 9 10 12 14 15 16 17 18 18 18 17 
16 15 14 12 10 9 7 5 4 2 1 1 0 0 0 0 
0 0 1 2 3 3 4 5 6 7 7 8 9 9 9 10 
10 10 10 10 10 10 9 9 9 8 8 8 7 7 6 6 
6 5 5 4 4 4 3 3 3 3 2 2 2 2 2 2 3 3 3 3 4 4 4 5 5 6 6 7 7 8 8 8 
9 9 10 10 10 11 11 11 11 11 11 11 11 10 10 9 
9 8 7 6 5 4 3 2 1 1 0 0 0 0 0 0 
1 3 4 6 7 9 11 13 15 16 18 19 19 20 19 19 
18 16 15 13 11 9 7 6 4 3 1 0 0 0 0 0 
0 1 1 2 3 4 5 6 7 8 9 9 10 10 11 11 
11 11 11 11 11 11 10 10 10 9 9 8 8 8 7 7 
6 6 5 5 4 4 4 3 3 3 3 2 2 2 2 2 3 3 3 4 4 4 5 5 6 6 7 7 8 8 9 9 
10 10 11 11 12 12 12 13 13 13 13 13 12 12 11 11 
10 9 8 7 6 5 4 3 2 1 0 0 0 0 0 0 
1 3 4 6 8 10 12 14 16 18 19 21 21 21 21 21 
19 18 16 14 12 10 8 6 4 3 1 0 0 0 0 0 
0 1 2 3 4 5 6 7 8 9 10 11 11 12 12 13 
13 13 13 13 12 12 12 11 11 10 10 9 9 8 8 7 
7 6 6 5 5 4 4 4 3 3 3 2 2 2 2 3 3 3 4 4 4 5 5 6 6 7 7 8 8 9 10 10 
11 11 12 12 13 13 14 14 14 14 14 14 14 13 13 12 
12 11 10 9 7 6 5 4 3 2 1 0 0 0 0 0 
1 3 4 6 8 11 13 15 18 20 21 22 23 23 23 22 
21 20 18 15 13 11 8 6 4 3 1 0 0 0 0 0 
1 2 3 4 5 6 7 9 10 11 12 12 13 13 14 14 
14 14 14 14 14 13 13 12 12 11 11 10 10 9 8 8 
7 7 6 6 5 5 4 4 4 3 3 3 2 2 3 3 3 4 4 4 5 5 6 6 7 7 8 9 9 10 10 11 
12 12 13 14 14 15 15 15 16 16 16 16 16 15 15 14 
13 12 11 10 9 7 6 5 3 2 1 0 0 0 0 0 
1 2 4 6 9 11 14 16 19 21 23 24 25 25 25 24 
23 21 19 16 14 11 9 6 4 2 1 0 0 0 0 0 
1 2 3 5 6 7 9 10 11 12 13 14 15 15 16 16 
16 16 16 15 15 15 14 14 13 12 12 11 10 10 9 9 
8 7 7 6 6 5 5 4 4 4 3 3 3 2 3 3 3 4 4 5 5 6 6 7 7 8 9 9 10 11 11 12 
13 14 14 15 16 16 17 17 17 18 18 18 17 17 17 16 
15 14 13 12 10 9 7 6 4 3 2 1 0 0 0 0 
1 2 4 6 9 12 14 17 20 23 25 26 27 27 27 26 
25 23 20 17 14 12 9 6 4 2 1 0 0 0 0 1 
2 3 4 6 7 9 10 12 13 14 15 16 17 17 17 18 
18 18 17 17 17 16 16 15 14 14 13 12 11 11 10 9 
9 8 7 7 6 6 5 5 4 4 3 3 3 2 3 3 4 4 5 5 6 6 7 7 8 9 9 10 11 12 12 13 
14 15 16 16 17 18 18 19 19 19 20 20 20 19 19 18 
17 16 15 13 12 10 9 7 5 4 2 1 0 0 0 0 
1 2 4 6 9 12 15 18 21 24 26 28 29 29 29 28 
26 24 21 18 15 12 9 6 4 2 1 0 0 0 0 1 
2 4 5 7 9 10 12 13 15 16 17 18 19 19 20 20 
20 19 19 19 18 18 17 16 16 15 14 13 12 12 11 10 
9 9 8 7 7 6 6 5 5 4 4 3 3 3 3 4 4 4 5 5 6 6 7 8 8 9 10 11 12 12 13 14 
15 16 17 18 19 19 20 21 21 21 22 22 22 21 21 20 
19 18 17 16 14 12 10 8 6 5 3 2 0 0 0 0 
1 2 4 6 9 12 16 19 22 25 28 30 31 31 31 30 
28 25 22 19 16 12 9 6 4 2 1 0 0 0 0 2 
3 5 6 8 10 12 14 16 17 18 19 20 21 21 22 22 
22 21 21 21 20 19 19 18 17 16 15 14 13 12 12 11 
10 9 8 8 7 6 6 5 5 4 4 4 3 3 3 4 4 5 5 6 6 7 8 8 9 10 11 12 12 13 14 15 
16 17 18 19 20 21 22 23 23 24 24 24 24 24 23 23 
22 21 19 18 16 14 12 10 8 6 4 2 1 0 0 0 
0 2 4 6 9 12 16 20 23 26 29 31 32 33 32 31 
29 26 23 20 16 12 9 6 4 2 0 0 0 0 1 2 
4 6 8 10 12 14 16 18 19 21 22 23 23 24 24 24 
24 24 23 23 22 21 20 19 18 17 16 15 14 13 12 12 
11 10 9 8 8 7 6 6 5 5 4 4 3 3 4 4 4 5 5 6 7 7 8 9 10 10 11 12 13 14 15 16 
18 19 20 21 22 23 24 25 25 26 26 27 27 26 26 25 
25 23 22 20 18 16 14 12 10 7 5 3 2 0 0 0 
0 1 3 6 9 12 16 20 24 27 30 32 34 34 34 32 
30 27 24 20 16 12 9 6 3 1 0 0 0 0 2 3 
5 7 10 12 14 16 18 20 22 23 25 25 26 26 27 27 
26 26 25 25 24 23 22 21 20 19 18 16 15 14 13 12 
11 10 10 9 8 7 7 6 5 5 4 4 4 3 4 4 5 5 6 6 7 8 9 9 10 11 12 13 14 15 16 18 
19 20 21 22 23 25 26 27 27 28 29 29 29 29 29 28 
27 26 25 23 21 19 17 14 11 9 6 4 2 1 0 0 
0 1 3 5 8 12 16 20 24 28 31 33 35 35 35 33 
31 28 24 20 16 12 8 5 3 1 0 0 0 1 2 4 
6 9 11 14 17 19 21 23 25 26 27 28 29 29 29 29 
29 28 27 27 26 25 23 22 21 20 19 18 16 15 14 13 
12 11 10 9 9 8 7 6 6 5 5 4 4 3 4 4 5 5 6 7 7 8 9 10 11 12 13 14 15 16 17 19 
20 21 23 24 25 26 28 29 30 31 31 32 32 32 32 31 
30 29 28 26 24 22 19 16 14 11 8 6 3 1 0 0 
0 0 2 5 8 11 15 20 24 28 31 34 35 36 35 34 
31 28 24 20 15 11 8 5 2 0 0 0 0 1 3 6 
8 11 14 16 19 22 24 26 28 29 30 31 32 32 32 32 
31 31 30 29 28 26 25 24 23 21 20 19 17 16 15 14 
13 12 11 10 9 8 7 7 6 5 5 4 4 3 4 5 5 6 6 7 8 9 9 10 11 12 14 15 16 17 19 20 
21 23 24 26 27 28 30 31 32 33 34 34 35 35 35 34 
34 32 31 29 27 25 22 19 16 13 10 7 5 2 1 0 
0 0 2 4 7 10 15 19 23 27 31 34 35 36 35 34 
31 27 23 19 15 10 7 4 2 0 0 0 1 2 5 7 
10 13 16 19 22 25 27 29 31 32 34 34 35 35 35 34 
34 33 32 31 30 28 27 26 24 23 21 20 19 17 16 15 
14 12 11 10 9 9 8 7 6 6 5 5 4 4 4 5 5 6 7 7 8 9 10 11 12 13 14 16 17 18 20 21 
23 24 26 27 29 30 32 33 34 35 36 37 38 38 38 38 
37 36 34 33 30 28 25 22 19 15 12 9 6 3 1 0 
0 0 1 3 6 9 14 18 22 27 30 33 35 35 35 33 
30 27 22 18 14 9 6 3 1 0 0 0 1 3 6 9 
12 15 19 22 25 28 30 33 34 36 37 38 38 38 38 37 
36 35 34 33 32 30 29 27 26 24 23 21 20 18 17 16 
14 13 12 11 10 9 8 7 7 6 5 5 4 4 4 5 6 6 7 8 9 9 10 11 13 14 15 16 18 19 21 22 
24 26 27 29 31 32 34 35 37 38 39 40 41 41 41 41 
40 39 38 36 34 31 28 25 22 18 15 11 8 5 2 1 
0 0 0 2 5 8 12 16 21 25 29 32 33 34 33 32 
29 25 21 16 12 8 5 2 0 0 0 1 2 5 8 11 
15 18 22 25 28 31 34 36 38 39 40 41 41 41 41 40 
39 38 37 35 34 32 31 29 27 26 24 22 21 19 18 16 
15 14 13 11 10 9 9 8 7 6 6 5 4 4 5 5 6 7 7 8 9 10 11 12 13 14 16 17 19 20 22 23 
25 27 29 31 32 34 36 38 39 41 42 43 44 44 44 44 
44 43 42 40 38 35 32 28 25 21 17 13 10 6 4 1 
0 0 0 1 4 7 10 15 19 23 27 29 31 32 31 29 
27 23 19 15 10 7 4 1 0 0 0 1 4 6 10 13 
17 21 25 28 32 35 38 40 42 43 44 44 44 44 44 43 
42 41 39 38 36 34 32 31 29 27 25 23 22 20 19 17 
16 14 13 12 11 10 9 8 7 7 6 5 5 4 5 5 6 7 8 8 9 10 11 12 14 15 16 18 19 21 23 24 
26 28 30 32 34 36 38 40 41 43 44 46 47 47 48 48 
47 46 45 43 41 39 35 32 28 24 20 16 12 8 5 2 
1 0 0 1 2 5 9 12 16 20 24 27 28 29 28 27 
24 20 17 12 9 5 2 1 0 0 1 2 5 8 12 16 
20 24 28 32 35 39 41 43 45 46 47 48 48 47 47 46 
44 43 41 40 38 36 34 32 30 28 26 24 23 21 19 18 
16 15 14 12 11 10 9 8 8 7 6 5 5 4 5 6 6 7 8 9 10 11 12 13 14 16 17 19 20 22 24 26 
27 29 32 34 36 38 40 42 44 45 47 48 50 50 51 51 
51 50 49 47 45 42 39 36 32 28 23 19 15 11 7 4 
2 0 0 0 1 4 7 10 14 17 20 23 25 25 25 23 
20 17 14 10 7 4 1 0 0 0 2 4 7 11 15 19 
23 28 32 36 39 42 45 47 49 50 51 51 51 50 50 48 
47 45 44 42 40 38 36 34 32 29 27 26 24 22 20 19 
17 16 14 13 12 11 10 9 8 7 6 6 5 4 5 6 6 7 8 9 10 11 12 13 15 16 18 19 21 23 25 27 
29 31 33 35 37 39 42 44 46 48 50 51 52 53 54 54 
54 54 53 51 49 46 43 39 35 31 27 22 17 13 9 5 
3 1 0 0 0 2 5 8 11 14 17 19 20 21 20 19 
17 14 11 8 5 2 0 0 0 1 3 5 9 13 17 22 
27 31 35 39 43 46 49 51 53 54 54 54 54 53 52 51 
50 48 46 44 42 39 37 35 33 31 29 27 25 23 21 19 
18 16 15 13 12 11 10 9 8 7 6 6 5 5 5 6 7 7 8 9 10 11 12 14 15 17 18 20 22 23 25 27 
30 32 34 36 39 41 43 46 48 50 52 54 55 56 57 57 
57 57 56 55 53 50 47 43 39 35 30 25 20 16 11 7 
4 2 0 0 0 1 3 5 8 10 12 14 15 16 15 14 
12 10 8 5 3 1 0 0 0 2 4 7 11 16 20 25 
30 35 39 43 47 50 53 55 56 57 57 57 57 56 55 54 
52 50 48 46 43 41 39 36 34 32 30 27 25 23 22 20 
18 17 15 14 12 11 10 9 8 7 7 6 5 5 5 6 7 8 8 9 10 12 13 14 15 17 19 20 22 24 26 28 
31 33 35 38 40 43 45 47 50 52 54 56 58 59 60 60 
61 60 59 58 56 53 50 47 43 38 33 28 23 18 14 9 
6 3 1 0 0 0 1 3 5 7 8 10 11 11 11 10 
8 7 5 3 1 0 0 0 1 3 6 9 14 18 23 28 
33 38 43 47 50 53 56 58 59 60 61 60 60 59 58 56 
54 52 50 47 45 43 40 38 35 33 31 28 26 24 22 20 
19 17 16 14 13 12 10 9 8 8 7 6 5 5 6 6 7 8 9 10 11 12 13 14 16 17 19 21 23 25 27 29 
31 34 36 39 41 44 46 49 51 54 56 58 60 61 62 63 
63 63 62 61 59 57 54 50 46 41 37 31 26 21 16 12 
8 4 2 0 0 0 0 1 2 4 5 6 6 6 6 6 
5 4 2 1 0 0 0 0 2 4 8 12 16 21 26 31 
37 41 46 50 54 57 59 61 62 63 63 63 62 61 60 58 
56 54 51 49 46 44 41 39 36 34 31 29 27 25 23 21 
19 17 16 14 13 12 11 10 9 8 7 6 6 5 6 6 7 8 9 10 11 12 13 15 16 18 19 21 23 25 27 30 
32 35 37 40 42 45 48 50 53 55 58 60 62 63 65 66 
66 66 65 64 62 60 57 53 49 45 40 34 29 24 19 14 
10 6 3 1 0 0 0 0 1 1 2 2 3 3 3 2 
2 1 1 0 0 0 0 1 3 6 10 14 19 24 29 34 
40 45 49 53 57 60 62 64 65 66 66 66 65 63 62 60 
58 55 53 50 48 45 42 40 37 35 32 30 27 25 23 21 
19 18 16 15 13 12 11 10 9 8 7 6 6 5 6 6 7 8 9 10 11 12 14 15 16 18 20 22 24 26 28 30 
33 35 38 40 43 46 49 52 54 57 59 61 63 65 67 68 
68 68 68 67 65 62 59 56 52 47 42 37 32 26 21 16 
12 8 5 2 1 0 0 0 0 0 0 0 0 0 0 0 
0 0 0 0 0 0 1 2 5 8 12 16 21 26 32 37 
42 47 52 56 59 62 65 67 68 68 68 68 67 65 63 61 
59 57 54 52 49 46 43 40 38 35 33 30 28 26 24 22 
20 18 16 15 14 12 11 10 9 8 7 6 6 5 6 6 7 8 9 10 11 12 14 15 17 18 20 22 24 26 28 31 
33 36 38 41 44 47 50 52 55 58 60 63 65 67 68 69 
70 70 69 68 67 65 62 58 54 49 44 39 34 28 23 18 
13 9 6 4 2 1 0 0 0 0 0 0 0 0 0 0 
0 0 0 0 0 1 2 4 6 9 13 18 23 28 34 39 
44 49 54 58 62 65 67 68 69 70 70 69 68 67 65 63 
60 58 55 52 50 47 44 41 38 36 33 31 28 26 24 22 
20 18 17 15 14 12 11 10 9 8 7 6 6 5 6 7 7 8 9 10 11 12 14 15 17 18 20 22 24 26 29 31 
34 36 39 42 44 47 50 53 56 59 61 64 66 68 69 70 
71 71 71 70 68 66 63 60 56 51 46 41 35 30 24 19 
15 11 7 5 3 1 0 0 0 0 0 0 0 0 0 0 
0 0 0 0 0 1 3 5 7 11 15 19 24 30 35 41 
46 51 56 60 63 66 68 70 71 71 71 70 69 68 66 64 
61 59 56 53 50 47 44 42 39 36 34 31 29 26 24 22 
20 18 17 15 14 12 11 10 9 8 7 7 6 5 6 7 7 8 9 10 11 13 14 15 17 19 20 22 24 26 29 31 
34 36 39 42 45 48 51 54 56 59 62 64 66 68 70 71 
72 72 72 71 69 67 64 61 57 52 47 42 36 31 25 20 
16 11 8 5 3 2 1 0 0 0 0 1 1 1 1 1 
0 0 0 0 1 2 3 5 8 11 16 20 25 31 36 42 
47 52 57 61 64 67 69 71 72 72 72 71 70 68 66 64 
62 59 56 54 51 48 45 42 39 36 34 31 29 26 24 22 
20 19 17 15 14 13 11 10 9 8 7 7 6 5 6 7 7 8 9 10 11 13 14 15 17 19 20 22 24 27 29 31 
34 36 39 42 45 48 51 54 57 59 62 64 67 69 70 71 
72 72 72 71 70 67 65 61 57 53 48 42 37 31 26 21 
16 12 8 5 3 2 1 1 0 0 1 1 1 1 1 1 
1 0 0 1 1 2 3 5 8 12 16 21 26 31 37 42 
48 53 57 61 65 67 70 71 72 72 72 71 70 69 67 64 
62 59 57 54 51 48 45 42 39 36 34 31 29 27 24 22 
20 19 17 15 14 13 11 10 9 8 7 7 6 5 6 7 7 8 9 10 11 13 14 15 17 19 20 22 24 26 29 31 
34 36 39 42 45 48 51 54 56 59 62 64 66 68 70 71 
72 72 72 71 69 67 64 61 57 52 47 42 36 31 25 20 
16 11 8 5 3 2 1 0 0 0 0 1 1 1 1 1 
0 0 0 0 1 2 3 5 8 11 16 20 25 31 36 42 
47 52 57 61 64 67 69 71 72 72 72 71 70 68 66 64 
62 59 56 54 51 48 45 42 39 36 34 31 29 26 24 22 
20 19 17 15 14 13 11 10 9 8 7 7 6 5 6 7 7 8 9 10 11 12 14 15 17 18 20 22 24 26 29 31 
34 36 39 42 44 47 50 53 56 59 61 64 66 68 69 70 
71 71 71 70 68 66 63 60 56 51 46 41 35 30 24 19 
15 11 7 5 3 1 0 0 0 0 0 0 0 0 0 0 
0 0 0 0 0 1 3 5 7 11 15 19 24 30 35 41 
46 51 56 60 63 66 68 70 71 71 71 70 69 68 66 64 
61 59 56 53 50 47 44 42 39 36 34 31 29 26 24 22 
20 18 17 15 14 12 11 10 9 8 7 7 6 5 6 6 7 8 9 10 11 12 14 15 17 18 20 22 24 26 28 31 
33 36 38 41 44 47 50 52 55 58 60 63 65 67 68 69 
70 70 69 68 67 65 62 58 54 49 44 39 34 28 23 18 
13 9 6 4 2 1 0 0 0 0 0 0 0 0 0 0 
0 0 0 0 0 1 2 4 6 9 13 18 23 28 34 39 
44 49 54 58 62 65 67 68 69 70 70 69 68 67 65 63 
60 58 55 52 50 47 44 41 38 36 33 31 28 26 24 22 
20 18 17 15 14 12 11 10 9 8 7 6 6 5 6 6 7 8 9 10 11 12 14 15 16 18 20 22 24 26 28 30 
33 35 38 40 43 46 49 52 54 57 59 61 63 65 67 68 
68 68 68 67 65 62 59 56 52 47 42 37 32 26 21 16 
12 8 5 2 1 0 0 0 0 0 0 0 0 0 0 0 
0 0 0 0 0 0 1 2 5 8 12 16 21 26 32 37 
42 47 52 56 59 62 65 67 68 68 68 68 67 65 63 61 
59 57 54 52 49 46 43 40 38 35 33 30 28 26 24 22 
20 18 16 15 14 12 11 10 9 8 7 6 6 5 6 6 7 8 9 10 11 12 13 15 16 18 19 21 23 25 27 30 
32 35 37 40 42 45 48 50 53 55 58 60 62 63 65 66 
66 66 65 64 62 60 57 53 49 45 40 34 29 24 19 14 
10 6 3 1 0 0 0 0 1 1 2 2 3 3 3 2 
2 1 1 0 0 0 0 1 3 6 10 14 19 24 29 34 
40 45 49 53 57 60 62 64 65 66 66 66 65 63 62 60 
58 55 53 50 48 45 42 40 37 35 32 30 27 25 23 21 
19 18 16 15 13 12 11 10 9 8 7 6 6 5 6 6 7 8 9 10 11 12 13 14 16 17 19 21 23 25 27 29 
31 34 36 39 41 44 46 49 51 54 56 58 60 61 62 63 
63 63 62 61 59 57 54 50 46 41 37 31 26 21 16 12 
8 4 2 0 0 0 0 1 2 4 5 6 6 6 6 6 
5 4 2 1 0 0 0 0 2 4 8 12 16 21 26 31 
37 41 46 50 54 57 59 61 62 63 63 63 62 61 60 58 
56 54 51 49 46 44 41 39 36 34 31 29 27 25 23 21 
19 17 16 14 13 12 11 10 9 8 7 6 6 5 5 6 7 8 8 9 10 12 13 14 15 17 19 20 22 24 26 28 
31 33 35 38 40 43 45 47 50 52 54 56 58 59 60 60 
61 60 59 58 56 53 50 47 43 38 33 28 23 18 14 9 
6 3 1 0 0 0 1 3 5 7 8 10 11 11 11 10 
8 7 5 3 1 0 0 0 1 3 6 9 14 18 23 28 
33 38 43 47 50 53 56 58 59 60 61 60 60 59 58 56 
54 52 50 47 45 43 40 38 35 33 31 28 26 24 22 20 
19 17 16 14 13 12 10 9 8 8 7 6 5 5 5 6 7 7 8 9 10 11 12 14 15 17 18 20 22 23 25 27 
30 32 34 36 39 41 43 46 48 50 52 54 55 56 57 57 
57 57 56 55 53 50 47 43 39 35 30 25 20 16 11 7 
4 2 0 0 0 1 3 5 8 10 12 14 15 16 15 14 
12 10 8 5 3 1 0 0 0 2 4 7 11 16 20 25 
30 35 39 43 47 50 53 55 56 57 57 57 57 56 55 54 
52 50 48 46 43 41 39 36 34 32 30 27 25 23 22 20 
18 17 15 14 12 11 10 9 8 7 7 6 5 5 5 6 6 7 8 9 10 11 12 13 15 16 18 19 21 23 25 27 
29 31 33 35 37 39 42 44 46 48 50 51 52 53 54 54 
54 54 53 51 49 46 43 39 35 31 27 22 17 13 9 5 
3 1 0 0 0 2 5 8 11 14 17 19 20 21 20 19 
17 14 11 8 5 2 0 0 0 1 3 5 9 13 17 22 
27 31 35 39 43 46 49 51 53 54 54 54 54 53 52 51 
50 48 46 44 42 39 37 35 33 31 29 27 25 23 21 19 
18 16 15 13 12 11 10 9 8 7 6 6 5 5 5 6 6 7 8 9 10 11 12 13 14 16 17 19 20 22 24 26 
27 29 32 34 36 38 40 42 44 45 47 48 50 50 51 51 
51 50 49 47 45 42 39 36 32 28 23 19 15 11 7 4 
2 0 0 0 1 4 7 10 14 17 20 23 25 25 25 23 
20 17 14 10 7 4 1 0 0 0 2 4 7 11 15 19 
23 28 32 36 39 42 45 47 49 50 51 51 51 50 50 48 
47 45 44 42 40 38 36 34 32 29 27 26 24 22 20 19 
17 16 14 13 12 11 10 9 8 7 6 6 5 4 5 5 6 7 8 8 9 10 11 12 14 15 16 18 19 21 23 24 
26 28 30 32 34 36 38 40 41 43 44 46 47 47 48 48 
47 46 45 43 41 39 35 32 28 24 20 16 12 8 5 2 
1 0 0 1 2 5 9 12 16 20 24 27 28 29 28 27 
24 20 17 12 9 5 2 1 0 0 1 2 5 8 12 16 
20 24 28 32 35 39 41 43 45 46 47 48 48 47 47 46 
44 43 41 40 38 36 34 32 30 28 26 24 23 21 19 18 
16 15 14 12 11 10 9 8 8 7 6 5 5 4 5 5 6 7 7 8 9 10 11 12 13 14 16 17 19 20 22 23 
25 27 29 31 32 34 36 38 39 41 42 43 44 44 44 44 
44 43 42 40 38 35 32 28 25 21 17 13 10 6 4 1 
0 0 0 1 4 7 10 15 19 23 27 29 31 32 31 29 
27 23 19 15 10 7 4 1 0 0 0 1 4 6 10 13 
17 21 25 28 32 35 38 40 42 43 44 44 44 44 44 43 
42 41 39 38 36 34 32 31 29 27 25 23 22 20 19 17 
16 14 13 12 11 10 9 8 7 7 6 5 5 4 4 5 6 6 7 8 9 9 10 11 13 14 15 16 18 19 21 22 
24 26 27 29 31 32 34 35 37 38 39 40 41 41 41 41 
40 39 38 36 34 31 28 25 22 18 15 11 8 5 2 1 
0 0 0 2 5 8 12 16 21 25 29 32 33 34 33 32 
29 25 21 16 12 8 5 2 0 0 0 1 2 5 8 11 
15 18 22 25 28 31 34 36 38 39 40 41 41 41 41 40 
39 38 37 35 34 32 31 29 27 26 24 22 21 19 18 16 
15 14 13 11 10 9 9 8 7 6 6 5 4 4 4 5 5 6 7 7 8 9 10 11 12 13 14 16 17 18 20 21 
23 24 26 27 29 30 32 33 34 35 36 37 38 38 38 38 
37 36 34 33 30 28 25 22 19 15 12 9 6 3 1 0 
0 0 1 3 6 9 14 18 22 27 30 33 35 35 35 33 
30 27 22 18 14 9 6 3 1 0 0 0 1 3 6 9 
12 15 19 22 25 28 30 33 34 36 37 38 38 38 38 37 
36 35 34 33 32 30 29 27 26 24 23 21 20 18 17 16 
14 13 12 11 10 9 8 7 7 6 5 5 4 4 4 5 5 6 6 7 8 9 9 10 11 12 14 15 16 17 19 20 
21 23 24 26 27 28 30 31 32 33 34 34 35 35 35 34 
34 32 31 29 27 25 22 19 16 13 10 7 5 2 1 0 
0 0 2 4 7 10 15 19 23 27 31 34 35 36 35 34 
31 27 23 19 15 10 7 4 2 0 0 0 1 2 5 7 
10 13 16 19 22 25 27 29 31 32 34 34 35 35 35 34 
34 33 32 31 30 28 27 26 24 23 21 20 19 17 16 15 
14 12 11 10 9 9 8 7 6 6 5 5 4 4 4 4 5 5 6 7 7 8 9 10 11 12 13 14 15 16 17 19 
20 21 23 24 25 26 28 29 30 31 31 32 32 32 32 31 
30 29 28 26 24 22 19 16 14 11 8 6 3 1 0 0 
0 0 2 5 8 11 15 20 24 28 31 34 35 36 35 34 
31 28 24 20 15 11 8 5 2 0 0 0 0 1 3 6 
8 11 14 16 19 22 24 26 28 29 30 31 32 32 32 32 
31 31 30 29 28 26 25 24 23 21 20 19 17 16 15 14 
13 12 11 10 9 8 7 7 6 5 5 4 4 3 4 4 5 5 6 6 7 8 9 9 10 11 12 13 14 15 16 18 
19 20 21 22 23 25 26 27 27 28 29 29 29 29 29 28 
27 26 25 23 21 19 17 14 11 9 6 4 2 1 0 0 
0 1 3 5 8 12 16 20 24 28 31 33 35 35 35 33 
31 28 24 20 16 12 8 5 3 1 0 0 0 1 2 4 
6 9 11 14 17 19 21 23 25 26 27 28 29 29 29 29 
29 28 27 27 26 25 23 22 21 20 19 18 16 15 14 13 
12 11 10 9 9 8 7 6 6 5 5 4 4 3 4 4 4 5 5 6 7 7 8 9 10 10 11 12 13 14 15 16 
18 19 20 21 22 23 24 25 25 26 26 27 27 26 26 25 
25 23 22 20 18 16 14 12 10 7 5 3 2 0 0 0 
0 1 3 6 9 12 16 20 24 27 30 32 34 34 34 32 
30 27 24 20 16 12 9 6 3 1 0 0 0 0 2 3 
5 7 10 12 14 16 18 20 22 23 25 25 26 26 27 27 
26 26 25 25 24 23 22 21 20 19 18 16 15 14 13 12 
11 10 10 9 8 7 7 6 5 5 4 4 4 3 3 4 4 5 5 6 6 7 8 8 9 10 11 12 12 13 14 15 
16 17 18 19 20 21 22 23 23 24 24 24 24 24 23 23 
22 21 19 18 16 14 12 10 8 6 4 2 1 0 0 0 
0 2 4 6 9 12 16 20 23 26 29 31 32 33 32 31 
29 26 23 20 16 12 9 6 4 2 0 0 0 0 1 2 
4 6 8 10 12 14 16 18 19 21 22 23 23 24 24 24 
24 24 23 23 22 21 20 19 18 17 16 15 14 13 12 12 
11 10 9 8 8 7 6 6 5 5 4 4 3 3 3 4 4 4 5 5 6 6 7 8 8 9 10 11 12 12 13 14 
15 16 17 18 19 19 20 21 21 21 22 22 22 21 21 20 
19 18 17 16 14 12 10 8 6 5 3 2 0 0 0 0 
1 2 4 6 9 12 16 19 22 25 28 30 31 31 31 30 
28 25 22 19 16 12 9 6 4 2 1 0 0 0 0 2 
3 5 6 8 10 12 14 16 17 18 19 20 21 21 22 22 
22 21 21 21 20 19 19 18 17 16 15 14 13 12 12 11 
10 9 8 8 7 6 6 5 5 4 4 4 3 3 3 3 4 4 5 5 6 6 7 7 8 9 9 10 11 12 12 13 
14 15 16 16 17 18 18 19 19 19 20 20 20 19 19 18 
17 16 15 13 12 10 9 7 5 4 2 1 0 0 0 0 
1 2 4 6 9 12 15 18 21 24 26 28 29 29 29 28 
26 24 21 18 15 12 9 6 4 2 1 0 0 0 0 1 
2 4 5 7 9 10 12 13 15 16 17 18 19 19 20 20 
20 19 19 19 18 18 17 16 16 15 14 13 12 12 11 10 
9 9 8 7 7 6 6 5 5 4 4 3 3 3 3 3 3 4 4 5 5 6 6 7 7 8 9 9 10 11 11 12 
13 14 14 15 16 16 17 17 17 18 18 18 17 17 17 16 
15 14 13 12 10 9 7 6 4 3 2 1 0 0 0 0 
1 2 4 6 9 12 14 17 20 23 25 26 27 27 27 26 
25 23 20 17 14 12 9 6 4 2 1 0 0 0 0 1 
2 3 4 6 7 9 10 12 13 14 15 16 17 17 17 18 
18 18 17 17 17 16 16 15 14 14 13 12 11 11 10 9 
9 8 7 7 6 6 5 5 4 4 3 3 3 2 3 3 3 4 4 4 5 5 6 6 7 7 8 9 9 10 10 11 
12 12 13 14 14 15 15 15 16 16 16 16 16 15 15 14 
13 12 11 10 9 7 6 5 3 2 1 0 0 0 0 0 
1 2 4 6 9 11 14 16 19 21 23 24 25 25 25 24 
23 21 19 16 14 11 9 6 4 2 1 0 0 0 0 0 
1 2 3 5 6 7 9 10 11 12 13 14 15 15 16 16 
16 16 16 15 15 15 14 14 13 12 12 11 10 10 9 9 
8 7 7 6 6 5 5 4 4 4 3 3 3 2 2 3 3 3 4 4 4 5 5 6 6 7 7 8 8 9 10 10 
11 11 12 12 13 13 14 14 14 14 14 14 14 13 13 12 
12 11 10 9 7 6 5 4 3 2 1 0 0 0 0 0 
1 3 4 6 8 11 13 15 18 20 21 22 23 23 23 22 
21 20 18 15 13 11 8 6 4 3 1 0 0 0 0 0 
1 2 3 4 5 6 7 9 10 11 12 12 13 13 14 14 
14 14 14 14 14 13 13 12 12 11 11 10 10 9 8 8 
7 7 6 6 5 5 4 4 4 3 3 3 2 2 2 2 3 3 3 4 4 4 5 5 6 6 7 7 8 8 9 9 
10 10 11 11 12 12 12 13 13 13 13 13 12 12 11 11 
10 9 8 7 6 5 4 3 2 1 0 0 0 0 0 0 
1 3 4 6 8 10 12 14 16 18 19 21 21 21 21 21 
19 18 16 14 12 10 8 6 4 3 1 0 0 0 0 0 
0 1 2 3 4 5 6 7 8 9 10 11 11 12 12 13 
13 13 13 13 12 12 12 11 11 10 10 9 9 8 8 7 
7 6 6 5 5 4 4 4 3 3 3 2 2 2 2 2 3 3 3 3 4 4 4 5 5 6 6 7 7 8 8 8 
9 9 10 10 10 11 11 11 11 11 11 11 11 10 10 9 
9 8 7 6 5 4 3 2 1 1 0 0 0 0 0 0 
1 3 4 6 7 9 11 13 15 16 18 19 19 20 19 19 
18 16 15 13 11 9 7 6 4 3 1 0 0 0 0 0 
0 1 1 2 3 4 5 6 7 8 9 9 10 10 11 11 
11 11 11 11 11 11 10 10 10 9 9 8 8 8 7 7 
6 6 5 5 4 4 4 3 3 3 3 2 2 2 2 2 2 3 3 3 3 4 4 4 5 5 6 6 6 7 7 8 
8 8 9 9 9 10 10 10 10 10 10 10 9 9 9 8 
7 7 6 5 4 3 3 2 1 0 0 0 0 0 0 1 
1 2 4 5 7 9 10 12 14 15 16 17 18 18 18 17 
16 15 14 12 10 9 7 5 4 2 1 1 0 0 0 0 
0 0 1 2 3 3 4 5 6 7 7 8 9 9 9 10 
10 10 10 10 10 10 9 9 9 8 8 8 7 7 6 6 
6 5 5 4 4 4 3 3 3 3 2 2 2 2 2 2 2 2 3 3 3 3 4 4 4 5 5 5 6 6 7 7 
7 8 8 8 8 9 9 9 9 9 9 9 8 8 8 7 
6 6 5 4 4 3 2 1 1 0 0 0 0 0 0 1 
1 2 4 5 6 8 9 11 12 14 15 15 16 16 16 15 
15 14 12 11 9 8 6 5 4 2 1 1 0 0 0 0 
0 0 1 1 2 3 4 4 5 6 6 7 8 8 8 9 
9 9 9 9 9 9 8 8 8 8 7 7 7 6 6 5 
5 5 4 4 4 3 3 3 3 2 2 2 2 1 2 2 2 2 2 3 3 3 3 4 4 4 5 5 5 6 6 6 
7 7 7 7 8 8 8 8 8 8 8 8 7 7 7 6 
5 5 4 4 3 2 2 1 0 0 0 0 0 0 0 1 
1 2 3 5 6 7 9 10 11 12 13 14 14 14 14 14 
13 12 11 10 9 7 6 5 3 2 1 1 0 0 0 0 
0 0 0 1 2 2 3 4 4 5 5 6 7 7 7 8 
8 8 8 8 8 8 8 7 7 7 7 6 6 6 5 5 
5 4 4 4 3 3 3 3 2 2 2 2 2 1 1 2 2 2 2 2 3 3 3 3 4 4 4 4 5 5 5 6 
6 6 6 7 7 7 7 7 7 7 7 7 6 6 6 5 
5 4 4 3 2 2 1 1 0 0 0 0 0 0 0 1 
1 2 3 4 5 7 8 9 10 11 12 12 13 13 13 12 
12 11 10 9 8 7 5 4 3 2 1 1 0 0 0 0 
0 0 0 1 1 2 2 3 4 4 5 5 6 6 6 7 
7 7 7 7 7 7 7 7 6 6 6 6 5 5 5 4 
4 4 4 3 3 3 3 2 2 2 2 2 1 1 1 1 2 2 2 2 2 3 3 3 3 4 4 4 4 5 5 5 
5 5 6 6 6 6 6 6 6 6 6 6 5 5 5 4 
4 3 3 2 2 1 1 0 0 0 0 0 0 0 0 1 
1 2 3 4 5 6 7 8 9 10 10 11 11 11 11 11 
10 10 9 8 7 6 5 4 3 2 1 1 0 0 0 0 
0 0 0 0 1 1 2 2 3 3 4 4 5 5 5 6 
6 6 6 6 6 6 6 6 6 5 5 5 5 5 4 4 
4 4 3 3 3 3 2 2 2 2 2 1 1 1 1 1 1 2 2 2 2 2 3 3 3 3 3 4 4 4 4 4 
5 5 5 5 5 5 5 5 5 5 5 5 5 4 4 4 
3 3 2 2 1 1 1 0 0 0 0 0 0 0 0 1 
1 2 3 3 4 5 6 7 8 9 9 10 10 10 10 10 
9 9 8 7 6 5 4 3 3 2 1 1 0 0 0 0 
0 0 0 0 1 1 1 2 2 3 3 4 4 4 5 5 
5 5 5 5 5 5 5 5 5 5 5 4 4 4 4 4 
3 3 3 3 3 2 2 2 2 2 1 1 1 1 1 1 1 1 2 2 2 2 2 2 3 3 3 3 3 4 4 4 
4 4 4 5 5 5 5 5 5 5 4 4 4 4 3 3 
3 2 2 2 1 1 0 0 0 0 0 0 0 0 0 1 
1 2 2 3 4 5 6 6 7 8 8 9 9 9 9 9 
8 8 7 6 6 5 4 3 2 2 1 1 0 0 0 0 
0 0 0 0 0 1 1 2 2 2 3 3 3 4 4 4 
4 5 5 5 5 5 5 5 4 4 4 4 4 4 3 3 
3 3 3 2 2 2 2 2 2 1 1 1 1 1 1 1 1 1 1 2 2 2 2 2 2 3 3 3 3 3 3 4 
4 4 4 4 4 4 4 4 4 4 4 4 3 3 3 3 
2 2 2 1 1 1 0 0 0 0 0 0 0 0 0 0 
1 1 2 3 3 4 5 6 6 7 7 8 8 8 8 8 
7 7 6 6 5 4 3 3 2 1 1 0 0 0 0 0 
0 0 0 0 0 1 1 1 2 2 2 3 3 3 3 4 
4 4 4 4 4 4 4 4 4 4 4 4 3 3 3 3 
3 3 2 2 2 2 2 2 1 1 1 1 1 1 1 1 1 1 1 1 1 2 2 2 2 2 2 3 3 3 3 3 
3 3 3 3 4 4 4 4 3 3 3 3 3 3 2 2 
2 2 1 1 1 0 0 0 0 0 0 0 0 0 0 0 
1 1 2 2 3 4 4 5 5 6 6 7 7 7 7 7 
6 6 5 5 4 4 3 2 2 1 1 0 0 0 0 0 
0 0 0 0 0 0 1 1 1 2 2 2 2 3 3 3 
3 3 3 4 4 4 4 3 3 3 3 3 3 3 3 3 
2 2 2 2 2 2 1 1 1 1 1 1 1 1 1 1 1 1 1 1 1 1 2 2 2 2 2 2 2 2 3 3 
3 3 3 3 3 3 3 3 3 3 3 3 2 2 2 2 
2 1 1 1 0 0 0 0 0 0 0 0 0 0 0 0 
1 1 2 2 3 3 4 4 5 5 6 6 6 6 6 6 
6 5 5 4 4 3 3 2 2 1 1 0 0 0 0 0 
0 0 0 0 0 0 0 1 1 1 2 2 2 2 2 3 
3 3 3 3 3 3 3 3 3 3 3 3 3 2 2 2 
2 2 2 2 2 1 1 1 1 1 1 1 1 1 1 1 1 1 1 1 1 1 1 1 2 2 2 2 2 2 2 2 
2 3 3 3 3 3 3 3 3 2 2 2 2 2 2 1 
1 1 1 1 0 0 0 0 0 0 0 0 0 0 0 0 
1 1 1 2 2 3 3 4 4 5 5 5 5 5 5 5 
5 5 4 4 3 3 2 2 1 1 1 0 0 0 0 0 
0 0 0 0 0 0 0 1 1 1 1 1 2 2 2 2 
2 2 3 3 3 3 3 3 3 3 2 2 2 2 2 2 
2 2 2 1 1 1 1 1 1 1 1 1 1 0 0 1 1 1 1 1 1 1 1 1 1 1 2 2 2 2 2 2 
2 2 2 2 2 2 2 2 2 2 2 2 2 2 1 1 
1 1 1 0 0 0 0 0 0 0 0 0 0 0 0 0 
1 1 1 2 2 2 3 3 4 4 4 4 4 5 4 4 
4 4 4 3 3 2 2 2 1 1 1 0 0 0 0 0 
0 0 0 0 0 0 0 0 1 1 1 1 1 2 2 2 
2 2 2 2 2 2 2 2 2 2 2 2 2 2 2 2 
2 1 1 1 1 1 1 1 1 1 1 1 0 0 0 0 1 1 1 1 1 1 1 1 1 1 1 1 2 2 2 2 
2 2 2 2 2 2 2 2 2 2 2 2 1 1 1 1 
1 1 0 0 0 0 0 0 0 0 0 0 0 0 0 0 
0 1 1 1 2 2 2 3 3 3 4 4 4 4 4 4 
4 3 3 3 2 2 2 1 1 1 0 0 0 0 0 0 
0 0 0 0 0 0 0 0 0 1 1 1 1 1 1 2 
2 2 2 2 2 2 2 2 2 2 2 2 2 2 2 1 
1 1 1 1 1 1 1 1 1 1 1 0 0 0 0 0 0 0 1 1 1 1 1 1 1 1 1 1 1 1 1 2 
2 2 2 2 2 2 2 2 2 1 1 1 1 1 1 1 
1 0 0 0 0 0 0 0 0 0 0 0 0 0 0 0 
0 1 1 1 2 2 2 2 3 3 3 3 3 3 3 3 
3 3 3 2 2 2 2 1 1 1 0 0 0 0 0 0 
0 0 0 0 0 0 0 0 0 0 1 1 1 1 1 1 
1 1 2 2 2 2 2 2 2 2 2 2 1 1 1 1 
1 1 1 1 1 1 1 1 1 0 0 0 0 0 0 0 0 0 0 1 1 1 1 1 1 1 1 1 1 1 1 1 
1 1 1 1 1 1 1 1 1 1 1 1 1 1 1 1 
0 0 0 0 0 0 0 0 0 0 0 0 0 0 0 0 
0 0 1 1 1 2 2 2 2 2 3 3 3 3 3 3 
3 2 2 2 2 2 1 1 1 0 0 0 0 0 0 0 
0 0 0 0 0 0 0 0 0 0 0 1 1 1 1 1 
1 1 1 1 1 1 1 1 1 1 1 1 1 1 1 1 
1 1 1 1 1 1 1 1 0 0 0 0 0 0 0 0 0 0 0 0 0 1 1 1 1 1 1 1 1 1 1 1 
1 1 1 1 1 1 1 1 1 1 1 1 1 1 0 0 
0 0 0 0 0 0 0 0 0 0 0 0 0 0 0 0 
0 0 1 1 1 1 2 2 2 2 2 2 2 2 2 2 
2 2 2 2 2 1 1 1 1 0 0 0 0 0 0 0 
0 0 0 0 0 0 0 0 0 0 0 0 0 1 1 1 
1 1 1 1 1 1 1 1 1 1 1 1 1 1 1 1 
1 1 1 1 1 1 0 0 0 0 0 0 0 0 0 0 0 0 0 0 0 0 0 1 1 1 1 1 1 1 1 1 
1 1 1 1 1 1 1 1 1 1 1 1 1 0 0 0 
0 0 0 0 0 0 0 0 0 0 0 0 0 0 0 0 
0 0 0 1 1 1 1 1 2 2 2 2 2 2 2 2 
2 2 2 1 1 1 1 1 0 0 0 0 0 0 0 0 
0 0 0 0 0 0 0 0 0 0 0 0 0 0 1 1 
1 1 1 1 1 1 1 1 1 1 1 1 1 1 1 1 
1 1 1 1 0 0 0 0 0 0 0 0 0 0 0 0 0 0 0 0 0 0 0 0 0 1 1 1 1 1 1 1 
1 1 1 1 1 1 1 1 1 1 1 0 0 0 0 0 
0 0 0 0 0 0 0 0 0 0 0 0 0 0 0 0 
0 0 0 1 1 1 1 1 1 1 2 2 2 2 2 2 
2 1 1 1 1 1 1 1 0 0 0 0 0 0 0 0 
0 0 0 0 0 0 0 0 0 0 0 0 0 0 0 0 
1 1 1 1 1 1 1 1 1 1 1 1 1 1 1 1 
1 1 0 0 0 0 0 0 0 0 0 0 0 0 0 0 0 0 0 0 0 0 0 0 0 0 0 0 1 1 1 1 
1 1 1 1 1 1 1 1 0 0 0 0 0 0 0 0 
0 0 0 0 0 0 0 0 0 0 0 0 0 0 0 0 
0 0 0 0 1 1 1 1 1 1 1 1 1 1 1 1 
1 1 1 1 1 1 1 0 0 0 0 0 0 0 0 0 
0 0 0 0 0 0 0 0 0 0 0 0 0 0 0 0 
0 0 0 1 1 1 1 1 1 1 1 1 1 1 1 0 
0 0 0 0 0 0 0 0 0 0 0 0 0 0 0 0 0 0 0 0 0 0 0 0 0 0 0 0 0 0 0 0 
0 0 0 0 0 0 0 0 0 0 0 0 0 0 0 0 
0 0 0 0 0 0 0 0 0 0 0 0 0 0 0 0 
0 0 0 0 0 1 1 1 1 1 1 1 1 1 1 1 
1 1 1 1 1 1 0 0 0 0 0 0 0 0 0 0 
0 0 0 0 0 0 0 0 0 0 0 0 0 0 0 0 
0 0 0 0 0 0 0 0 0 0 0 0 0 0 0 0 
0 0 0 0 0 0 0 0 0 0 0 0 0 0 0 0 0 0 0 0 0 0 0 0 0 0 0 0 0 0 0 0 
0 0 0 0 0 0 0 0 0 0 0 0 0 0 0 0 
0 0 0 0 0 0 0 0 0 0 0 0 0 0 0 0 
0 0 0 0 0 0 1 1 1 1 1 1 1 1 1 1 
1 1 1 1 1 0 0 0 0 0 0 0 0 0 0 0 
0 0 0 0 0 0 0 0 0 0 0 0 0 0 0 0 
0 0 0 0 0 0 0 0 0 0 0 0 0 0 0 0 
0 0 0 0 0 0 0 0 0 0 0 0 0 0 0 0 0 0 0 0 0 0 0 0 0 0 0 0 0 0 0 0 
0 0 0 0 0 0 0 0 0 0 0 0 0 0 0 0 
0 0 0 0 0 0 0 0 0 0 0 0 0 0 0 0 
0 0 0 0 0 0 0 0 1 1 1 1 1 1 1 1 
1 1 1 0 0 0 0 0 0 0 0 0 0 0 0 0 
0 0 0 0 0 0 0 0 0 0 0 0 0 0 0 0 
0 0 0 0 0 0 0 0 0 0 0 0 0 0 0 0 
0 0 0 0 0 0 0 0 0 0 0 0 0 0 0 0 0 0 0 0 0 0 0 0 0 0 0 0 0 0 0 0 
0 0 0 0 0 0 0 0 0 0 0 0 0 0 0 0 
0 0 0 0 0 0 0 0 0 0 0 0 0 0 0 0 
0 0 0 0 0 0 0 0 0 0 1 1 1 1 1 1 
1 0 0 0 0 0 0 0 0 0 0 0 0 0 0 0 
0 0 0 0 0 0 0 0 0 0 0 0 0 0 0 0 
0 0 0 0 0 0 0 0 0 0 0 0 0 0 0 0 
0 0 0 0 0 0 0 0 0 0 0 0 0 0 0 0 0 0 0 0 0 0 0 0 0 0 0 0 0 0 0 0 
0 0 0 0 0 0 0 0 0 0 0 0 0 0 0 0 
0 0 0 0 0 0 0 0 0 0 0 0 0 0 0 0 
0 0 0 0 0 0 0 0 0 0 0 0 0 0 0 0 
0 0 0 0 0 0 0 0 0 0 0 0 0 0 0 0 
0 0 0 0 0 0 0 0 0 0 0 0 0 0 0 0 
0 0 0 0 0 0 0 0 0 0 0 0 0 0 0 0 
0 0 0 0 0 0 0 0 0 0 0 0 0 0 0 0 0 0 0 0 0 0 0 0 0 0 0 0 0 0 0 0 
0 0 0 0 0 0 0 0 0 0 0 0 0 0 0 0 
0 0 0 0 0 0 0 0 0 0 0 0 0 0 0 0 
0 0 0 0 0 0 0 0 0 0 0 0 0 0 0 0 
0 0 0 0 0 0 0 0 0 0 0 0 0 0 0 0 
0 0 0 0 0 0 0 0 0 0 0 0 0 0 0 0 
0 0 0 0 0 0 0 0 0 0 0 0 0 0 0 0 
0 0 0 0 0 0 0 0 0 0 0 0 0 0 0 0 0 0 0 0 0 0 0 0 0 0 0 0 0 0 0 0 
0 0 0 0 0 0 0 0 0 0 0 0 0 0 0 0 
0 0 0 0 0 0 0 0 0 0 0 0 0 0 0 0 
0 0 0 0 0 0 0 0 0 0 0 0 0 0 0 0 
0 0 0 0 0 0 0 0 0 0 0 0 0 0 0 0 
0 0 0 0 0 0 0 0 0 0 0 0 0 0 0 0 
0 0 0 0 0 0 0 0 0 0 0 0 0 0 0 0 
0 0 0 0 0 0 0 0 0 0 0 0 0 0 0 0 0 0 0 0 0 0 0 0 0 0 0 0 0 0 0 0 
0 0 0 0 0 0 0 0 0 0 0 0 0 0 0 0 
0 0 0 0 0 0 0 0 0 0 0 0 0 0 0 0 
0 0 0 0 0 0 0 0 0 0 0 0 0 0 0 0 
0 0 0 0 0 0 0 0 0 0 0 0 0 0 0 0 
0 0 0 0 0 0 0 0 0 0 0 0 0 0 0 0 
0 0 0 0 0 0 0 0 0 0 0 0 0 0 0 0 
0 0 0 0 0 0 0 0 0 0 0 0 0 0 0 0 0 0 0 0 0 0 0 0 0 0 0 0 0 0 0 0 
0 0 0 0 0 0 0 0 0 0 0 0 0 0 0 0 
0 0 0 0 0 0 0 0 0 0 0 0 0 0 0 0 
0 0 0 0 0 0 0 0 0 0 0 0 0 0 0 0 
0 0 0 0 0 0 0 0 0 0 0 0 0 0 0 0 
0 0 0 0 0 0 0 0 0 0 0 0 0 0 0 0 
0 0 0 0 0 0 0 0 0 0 0 0 0 0 0 0 
0 0 0 0 0 0 0 0 0 0 0 0 0 0 0 0 0 0 0 0 0 0 0 0 0 0 0 0 0 0 0 0 
0 0 0 0 0 0 0 0 0 0 0 0 0 0 0 0 
0 0 0 0 0 0 0 0 0 0 0 0 0 0 0 0 
0 0 0 0 0 0 0 0 0 0 0 0 0 0 0 0 
0 0 0 0 0 0 0 0 0 0 0 0 0 0 0 0 
0 0 0 0 0 0 0 0 0 0 0 0 0 0 0 0 
0 0 0 0 0 0 0 0 0 0 0 0 0 0 0 0 
0 0 0 0 0 0 0 0 0 0 0 0 0 0 0 0 0 0 0 0 0 0 0 0 0 0 0 0 0 0 0 0 
0 0 0 0 0 0 0 0 0 0 0 0 0 0 0 0 
0 0 0 0 0 0 0 0 0 0 0 0 0 0 0 0 
0 0 0 0 0 0 0 0 0 0 0 0 0 0 0 0 
0 0 0 0 0 0 0 0 0 0 0 0 0 0 0 0 
0 0 0 0 0 0 0 0 0 0 0 0 0 0 0 0 
0 0 0 0 0 0 0 0 0 0 0 0 0 0 0 0 
0 0 0 0 0 0 0 0 0 0 0 0 0 0 0 0 0 0 0 0 0 0 0 0 0 0 0 0 0 0 0 0 
0 0 0 0 0 0 0 0 0 0 0 0 0 0 0 0 
0 0 0 0 0 0 0 0 0 0 0 0 0 0 0 0 
0 0 0 0 0 0 0 0 0 0 0 0 0 0 0 0 
0 0 0 0 0 0 0 0 0 0 0 0 0 0 0 0 
0 0 0 0 0 0 0 0 0 0 0 0 0 0 0 0 
0 0 0 0 0 0 0 0 0 0 0 0 0 0 0 0 
0 0 0 0 0 0 0 0 0 0 0 0 0 0 0 0 0 0 0 0 0 0 0 0 0 0 0 0 0 0 0 0 
0 0 0 0 0 0 0 0 0 0 0 0 0 0 0 0 
0 0 0 0 0 0 0 0 0 0 0 0 0 0 0 0 
0 0 0 0 0 0 0 0 0 0 0 0 0 0 0 0 
0 0 0 0 0 0 0 0 0 0 0 0 0 0 0 0 
0 0 0 0 0 0 0 0 0 0 0 0 0 0 0 0 
0 0 0 0 0 0 0 0 0 0 0 0 0 0 0 0 
0 0 0 0 0 0 0 0 0 0 0 0 0 0 0 0 0 0 0 0 0 0 0 0 0 0 0 0 0 0 0 0 
0 0 0 0 0 0 0 0 0 0 0 0 0 0 0 0 
0 0 0 0 0 0 0 0 0 0 0 0 0 0 0 0 
0 0 0 0 0 0 0 0 0 0 0 0 0 0 0 0 
0 0 0 0 0 0 0 0 0 0 0 0 0 0 0 0 
0 0 0 0 0 0 0 0 0 0 0 0 0 0 0 0 
0 0 0 0 0 0 0 0 0 0 0 0 0 0 0 0 
0 0 0 0 0 0 0 0 0 0 0 0 0 0 0 0 0 0 0 0 0 0 0 0 0 0 0 0 0 0 0 0 
0 0 0 0 0 0 0 0 0 0 0 0 0 0 0 0 
0 0 0 0 0 0 0 0 0 0 0 0 0 0 0 0 
0 0 0 0 0 0 0 0 0 0 0 0 0 0 0 0 
0 0 0 0 0 0 0 0 0 0 0 0 0 0 0 0 
0 0 0 0 0 0 0 0 0 0 0 0 0 0 0 0 
0 0 0 0 0 0 0 0 0 0 0 0 0 0 0 0 
0 0 0 0 0 0 0 0 0 0 0 0 0 0 0 0 0 0 0 0 0 0 0 0 0 0 0 0 0 0 0 0 
0 0 0 0 0 0 0 0 0 0 0 0 0 0 0 0 
0 0 0 0 0 0 0 0 0 0 0 0 0 0 0 0 
0 0 0 0 0 0 0 0 0 0 0 0 0 0 0 0 
0 0 0 0 0 0 0 0 0 0 0 0 0 0 0 0 
0 0 0 0 0 0 0 0 0 0 0 0 0 0 0 0 
0 0 0 0 0 0 0 0 0 0 0 0 0 0 0 0 
0 0 0 0 0 0 0 0 0 0 0 0 0 0 0 0 0 0 0 0 0 0 0 0 0 0 0 0 0 0 0 0 
0 0 0 0 0 0 0 0 0 0 0 0 0 0 0 0 
0 0 0 0 0 0 0 0 0 0 0 0 0 0 0 0 
0 0 0 0 0 0 0 0 0 0 0 0 0 0 0 0 
0 0 0 0 0 0 0 0 0 0 0 0 0 0 0 0 
0 0 0 0 0 0 0 0 0 0 0 0 0 0 0 0 
0 0 0 0 0 0 0 0 0 0 0 0 0 0 0 0 
0 0 0 0 0 0 0 0 0 0 0 0 0 0 0 0 0 0 0 0 0 0 0 0 0 0 0 0 0 0 0 0 
0 0 0 0 0 0 0 0 0 0 0 0 0 0 0 0 
0 0 0 0 0 0 0 0 0 0 0 0 0 0 0 0 
0 0 0 0 0 0 0 0 0 0 0 0 0 0 0 0 
0 0 0 0 0 0 0 0 0 0 0 0 0 0 0 0 
0 0 0 0 0 0 0 0 0 0 0 0 0 0 0 0 
0 0 0 0 0 0 0 0 0 0 0 0 0 0 0 0 
0 0 0 0 0 0 0 0 0 0 0 0 0 0 0 0 0 0 0 0 0 0 0 0 0 0 0 0 0 0 0 0 
0 0 0 0 0 0 0 0 0 0 0 0 0 0 0 0 
0 0 0 0 0 0 0 0 0 0 0 0 0 0 0 0 
0 0 0 0 0 0 0 0 0 0 0 0 0 0 0 0 
0 0 0 0 0 0 0 0 0 0 0 0 0 0 0 0 
0 0 0 0 0 0 0 0 0 0 0 0 0 0 0 0 
0 0 0 0 0 0 0 0 0 0 0 0 0 0 0 0 
0 0 0 0 0 0 0 0 0 0 0 0 0 0 0 